<svg width="28" height="28" viewBox="0 0 28 28" fill="none" xmlns="http://www.w3.org/2000/svg" role="img" aria-label="Logo de Matheus Tiburcio">
  <title>Matheus Tiburcio</title>
  <g fill="#A855F7">
    <rect x="4" y="4" width="3" height="3" />
    <rect x="25" y="4" width="3" height="3" />
    <rect x="4" y="7" width="3" height="3" />
    <rect x="7" y="7" width="3" height="3" />
    <rect x="22" y="7" width="3" height="3" />
    <rect x="25" y="7" width="3" height="3" />
    <rect x="4" y="10" width="3" height="3" />
    <rect x="10" y="10" width="3" height="3" />
    <rect x="19" y="10" width="3" height="3" />
    <rect x="25" y="10" width="3" height="3" />
    <rect x="4" y="13" width="3" height="3" />
    <rect x="13" y="13" width="3" height="3" />
    <rect x="16" y="13" width="3" height="3" />
    <rect x="25" y="13" width="3" height="3" />
    <rect x="4" y="16" width="3" height="3" />
    <rect x="25" y="16" width="3" height="3" />
    <rect x="4" y="19" width="3" height="3" />
    <rect x="25" y="19" width="3" height="3" />
    <rect x="4" y="22" width="3" height="3" />
    <rect x="25" y="22" width="3" height="3" />
    <rect x="4" y="25" width="3" height="3" />
    <rect x="25" y="25" width="3" height="3" />
  </g>
  <g fill="#18181B">
    <rect x="2" y="2" width="3" height="3" />
    <rect x="23" y="2" width="3" height="3" />
    <rect x="2" y="5" width="3" height="3" />
    <rect x="5" y="5" width="3" height="3" />
    <rect x="20" y="5" width="3" height="3" />
    <rect x="23" y="5" width="3" height="3" />
    <rect x="2" y="8" width="3" height="3" />
    <rect x="8" y="8" width="3" height="3" />
    <rect x="17" y="8" width="3" height="3" />
    <rect x="23" y="8" width="3" height="3" />
    <rect x="2" y="11" width="3" height="3" />
    <rect x="11" y="11" width="3" height="3" />
    <rect x="14" y="11" width="3" height="3" />
    <rect x="23" y="11" width="3" height="3" />
    <rect x="2" y="14" width="3" height="3" />
    <rect x="23" y="14" width="3" height="3" />
    <rect x="2" y="17" width="3" height="3" />
    <rect x="23" y="17" width="3" height="3" />
    <rect x="2" y="20" width="3" height="3" />
    <rect x="23" y="20" width="3" height="3" />
    <rect x="2" y="23" width="3" height="3" />
    <rect x="23" y="23" width="3" height="3" />
  </g>
</svg>
