<svg width="72" height="12" viewBox="0 0 72 12" fill="none" xmlns="http://www.w3.org/2000/svg">
<path d="M0.167614 6.22443V5.26989L5.8267 2.52557V3.82528L1.65057 5.73011L1.68892 5.65341V5.83665L1.65057 5.7642L5.8267 7.66477V8.96875L0.167614 6.22443ZM7.95099 1.27273H9.54901L12.3274 8.05682H12.4297L15.2081 1.27273H16.8061V10H15.5533V3.68466H15.4723L12.8984 9.98722H11.8587L9.2848 3.6804H9.20384V10H7.95099V1.27273ZM20.5231 10.1449C20.1083 10.1449 19.7333 10.0682 19.3981 9.91477C19.0629 9.75852 18.7972 9.53267 18.6012 9.23722C18.408 8.94176 18.3114 8.57955 18.3114 8.15057C18.3114 7.78125 18.3825 7.47727 18.5245 7.23864C18.6665 7 18.8583 6.81108 19.0998 6.67188C19.3413 6.53267 19.6112 6.42756 19.9094 6.35653C20.2077 6.28551 20.5117 6.23153 20.8214 6.1946C21.2134 6.14915 21.5316 6.11222 21.7759 6.08381C22.0202 6.05256 22.1978 6.00284 22.3086 5.93466C22.4194 5.86648 22.4748 5.75568 22.4748 5.60227V5.57244C22.4748 5.20028 22.3697 4.91193 22.1594 4.70739C21.9521 4.50284 21.6424 4.40057 21.2305 4.40057C20.8015 4.40057 20.4634 4.49574 20.2163 4.68608C19.9719 4.87358 19.8029 5.08239 19.7092 5.3125L18.5117 5.03977C18.6538 4.64205 18.8612 4.32102 19.1339 4.0767C19.4094 3.82955 19.7262 3.65057 20.0842 3.53977C20.4421 3.42614 20.8185 3.36932 21.2134 3.36932C21.4748 3.36932 21.7518 3.40057 22.0444 3.46307C22.3398 3.52273 22.6154 3.63352 22.8711 3.79545C23.1296 3.95739 23.3413 4.18892 23.506 4.49006C23.6708 4.78835 23.7532 5.17614 23.7532 5.65341V10H22.5089V9.10511H22.4577C22.3754 9.26989 22.2518 9.43182 22.087 9.59091C21.9222 9.75 21.7106 9.8821 21.4521 9.98722C21.1935 10.0923 20.8839 10.1449 20.5231 10.1449ZM20.8001 9.12216C21.1523 9.12216 21.4535 9.05256 21.7035 8.91335C21.9563 8.77415 22.1481 8.59233 22.2788 8.3679C22.4123 8.14062 22.479 7.89773 22.479 7.6392V6.79545C22.4336 6.84091 22.3455 6.88352 22.2148 6.9233C22.087 6.96023 21.9407 6.9929 21.7759 7.02131C21.6112 7.04687 21.4506 7.07102 21.2944 7.09375C21.1381 7.11364 21.0075 7.13068 20.9023 7.14489C20.6552 7.17614 20.4293 7.22869 20.2248 7.30256C20.0231 7.37642 19.8612 7.48295 19.739 7.62216C19.6197 7.75852 19.56 7.94034 19.56 8.16761C19.56 8.48295 19.6765 8.72159 19.9094 8.88352C20.1424 9.04261 20.4393 9.12216 20.8001 9.12216ZM28.5057 3.45455V4.47727H24.9304V3.45455H28.5057ZM25.8892 1.88636H27.1634V8.07812C27.1634 8.32528 27.2003 8.51136 27.2741 8.63636C27.348 8.75852 27.4432 8.84233 27.5597 8.88778C27.679 8.9304 27.8082 8.9517 27.9474 8.9517C28.0497 8.9517 28.1392 8.9446 28.2159 8.9304C28.2926 8.91619 28.3523 8.90483 28.3949 8.89631L28.625 9.94886C28.5511 9.97727 28.446 10.0057 28.3097 10.0341C28.1733 10.0653 28.0028 10.0824 27.7983 10.0852C27.4631 10.0909 27.1506 10.0312 26.8608 9.90625C26.571 9.78125 26.3366 9.58807 26.1577 9.3267C25.9787 9.06534 25.8892 8.73722 25.8892 8.34233V1.88636ZM31.3299 6.11364V10H30.0558V1.27273H31.3129V4.51989H31.3938C31.5472 4.16761 31.7816 3.88778 32.0969 3.6804C32.4123 3.47301 32.8242 3.36932 33.3327 3.36932C33.7816 3.36932 34.1737 3.46165 34.5089 3.64631C34.8469 3.83097 35.1083 4.10653 35.293 4.47301C35.4805 4.83665 35.5742 5.29119 35.5742 5.83665V10H34.3001V5.99006C34.3001 5.50994 34.1765 5.13778 33.9293 4.87358C33.6822 4.60653 33.3384 4.47301 32.8981 4.47301C32.5969 4.47301 32.3271 4.53693 32.0884 4.66477C31.8526 4.79261 31.6665 4.98011 31.5302 5.22727C31.3967 5.47159 31.3299 5.76705 31.3299 6.11364ZM40.0955 10.1321C39.4506 10.1321 38.8952 9.99432 38.4293 9.71875C37.9663 9.44034 37.6083 9.04972 37.3555 8.54688C37.1055 8.04119 36.9805 7.44886 36.9805 6.76989C36.9805 6.09943 37.1055 5.50852 37.3555 4.99716C37.6083 4.4858 37.9606 4.08665 38.4123 3.79972C38.8668 3.51278 39.3981 3.36932 40.006 3.36932C40.3754 3.36932 40.7333 3.4304 41.0799 3.55256C41.4265 3.67472 41.7376 3.86648 42.0131 4.12784C42.2887 4.3892 42.506 4.72869 42.6651 5.14631C42.8242 5.56108 42.9038 6.06534 42.9038 6.65909V7.1108H37.7006V6.15625H41.6552C41.6552 5.82102 41.587 5.52415 41.4506 5.26562C41.3143 5.00426 41.1225 4.7983 40.8754 4.64773C40.631 4.49716 40.3441 4.42188 40.0146 4.42188C39.6566 4.42188 39.3441 4.50994 39.0771 4.68608C38.8129 4.85937 38.6083 5.08665 38.4634 5.3679C38.3214 5.64631 38.2504 5.94886 38.2504 6.27557V7.02131C38.2504 7.45881 38.3271 7.83097 38.4805 8.13778C38.6367 8.4446 38.854 8.67898 39.1325 8.84091C39.4109 9 39.7362 9.07955 40.1083 9.07955C40.3498 9.07955 40.57 9.04545 40.7688 8.97727C40.9677 8.90625 41.1396 8.80114 41.2844 8.66193C41.4293 8.52273 41.5401 8.35085 41.6168 8.14631L42.8228 8.36364C42.7262 8.71875 42.5529 9.02983 42.3029 9.29688C42.0558 9.56108 41.7447 9.76705 41.3697 9.91477C40.9975 10.0597 40.5728 10.1321 40.0955 10.1321ZM48.4638 7.28551V3.45455H49.7422V10H48.4893V8.86648H48.4212C48.2706 9.21591 48.0291 9.5071 47.6967 9.74006C47.3672 9.97017 46.9567 10.0852 46.4652 10.0852C46.0447 10.0852 45.6726 9.9929 45.3487 9.80824C45.0277 9.62074 44.7749 9.34375 44.5902 8.97727C44.4084 8.6108 44.3175 8.15767 44.3175 7.6179V3.45455H45.5916V7.46449C45.5916 7.91051 45.7152 8.26562 45.9624 8.52983C46.2095 8.79403 46.5305 8.92614 46.9254 8.92614C47.1641 8.92614 47.4013 8.86648 47.6371 8.74716C47.8757 8.62784 48.0732 8.44744 48.2294 8.20597C48.3885 7.96449 48.4666 7.65767 48.4638 7.28551ZM56.359 5.05256L55.2042 5.2571C55.1559 5.10937 55.0792 4.96875 54.9741 4.83523C54.8718 4.7017 54.7326 4.59233 54.5565 4.5071C54.3803 4.42187 54.1602 4.37926 53.896 4.37926C53.5352 4.37926 53.234 4.46023 52.9925 4.62216C52.7511 4.78125 52.6303 4.98722 52.6303 5.24006C52.6303 5.45881 52.7113 5.63494 52.8732 5.76847C53.0352 5.90199 53.2965 6.01136 53.6573 6.09659L54.6971 6.33523C55.2994 6.47443 55.7482 6.68892 56.0437 6.97869C56.3391 7.26847 56.4869 7.64489 56.4869 8.10795C56.4869 8.5 56.3732 8.84943 56.146 9.15625C55.9215 9.46023 55.6076 9.69886 55.2042 9.87216C54.8036 10.0455 54.3391 10.1321 53.8107 10.1321C53.0778 10.1321 52.4798 9.97585 52.0167 9.66335C51.5536 9.34801 51.2695 8.90057 51.1644 8.32102L52.396 8.13352C52.4727 8.45455 52.6303 8.69744 52.869 8.86222C53.1076 9.02415 53.4187 9.10511 53.8022 9.10511C54.2198 9.10511 54.5536 9.01847 54.8036 8.84517C55.0536 8.66903 55.1786 8.45455 55.1786 8.2017C55.1786 7.99716 55.1019 7.82528 54.9485 7.68608C54.7979 7.54687 54.5664 7.44176 54.2539 7.37074L53.146 7.12784C52.5352 6.98864 52.0835 6.76705 51.7908 6.46307C51.5011 6.15909 51.3562 5.77415 51.3562 5.30824C51.3562 4.92187 51.4641 4.58381 51.68 4.29403C51.896 4.00426 52.1942 3.77841 52.5749 3.61648C52.9556 3.4517 53.3917 3.36932 53.8832 3.36932C54.5906 3.36932 55.1474 3.52273 55.5536 3.82955C55.9599 4.13352 56.2283 4.54119 56.359 5.05256ZM64.3874 0.863636L61.5749 11.3125H60.4371L63.2496 0.863636H64.3874ZM71.44 7.04261L65.7809 9.78693V8.48295L69.957 6.58239L69.9144 6.65483V6.47159L69.957 6.5483L65.7809 4.64347V3.34375L71.44 6.08807V7.04261Z" fill="#333333"/>
</svg>
